<svg width="794" height="293" viewBox="0 0 794 293" fill="none" xmlns="http://www.w3.org/2000/svg">
<g clip-path="url(#clip0_104_2)">
<path d="M761.197 179.528V154.318V103.937H685.606H635.225V78.7276H761.197V28.3465H635.225H559.635V78.7276V103.937V154.318H635.225H685.606V179.528H559.635V229.909H685.606H761.197V179.528ZM781.115 163.767V245.669C781.115 247.332 780.435 248.957 779.263 250.129C778.091 251.301 776.466 251.981 774.803 251.981H692.901V264.567H787.389C789.052 264.567 790.677 263.887 791.849 262.715C793.02 261.543 793.701 259.918 793.701 258.255V163.767H781.115ZM100.8 0H6.31181C4.64882 0 3.02362 0.680315 1.85197 1.85197C0.680315 3.02362 0 4.64882 0 6.31181V100.8H12.5858V18.8976C12.5858 17.2346 13.2661 15.6094 14.4378 14.4378C15.6094 13.2661 17.2346 12.5858 18.8976 12.5858H100.8V0ZM181.682 292.913H232.063V179.528H181.682V292.913ZM225.789 28.3465H106.091V78.7276H181.682V154.318H232.063V34.6205C232.063 32.9575 231.383 31.3323 230.211 30.1606C229.039 28.989 227.414 28.3087 225.751 28.3087L225.789 28.3465ZM80.9197 28.3465H36.8126C35.1496 28.3465 33.5244 29.0268 32.3528 30.1984C31.1811 31.3701 30.5008 32.9953 30.5008 34.6583V223.635C30.5008 225.298 31.1811 226.923 32.3528 228.094C33.5244 229.266 35.1496 229.946 36.8126 229.946H156.51V179.565H80.9197V28.3843V28.3465ZM106.129 154.318H156.51V103.937H106.129V154.318ZM118.715 116.523H143.924V141.732H118.715V116.523ZM257.31 28.3465V78.7276H408.491V103.937H307.691H257.31V154.318V229.909H307.691V155.074L383.282 229.909H458.872L379.994 154.318H408.454H458.835V103.937V78.7276V28.3465H408.454H257.272H257.31ZM484.082 229.909H534.463V28.3465H484.082V229.909Z" fill="black"/>
</g>
<defs>
<clipPath id="clip0_104_2">
<rect width="793.701" height="292.913" fill="white"/>
</clipPath>
</defs>
</svg>
